<?xml version="1.0" encoding="UTF-8" standalone="no"?>
<!-- Created with Inkscape (http://www.inkscape.org/) -->

<svg
   width="185.52811mm"
   height="62.251446mm"
   viewBox="0 0 185.52811 62.251446"
   version="1.1"
   id="svg998"
   inkscape:version="1.1 (c68e22c387, 2021-05-23)"
   sodipodi:docname="SG_COLOR_LOGO.svg"
   xmlns:inkscape="http://www.inkscape.org/namespaces/inkscape"
   xmlns:sodipodi="http://sodipodi.sourceforge.net/DTD/sodipodi-0.dtd"
   xmlns="http://www.w3.org/2000/svg"
   xmlns:svg="http://www.w3.org/2000/svg">
  <sodipodi:namedview
     id="namedview1000"
     pagecolor="#ffffff"
     bordercolor="#cccccc"
     borderopacity="1"
     inkscape:pageshadow="0"
     inkscape:pageopacity="1"
     inkscape:pagecheckerboard="0"
     inkscape:document-units="mm"
     showgrid="false"
     fit-margin-top="0"
     fit-margin-left="0"
     fit-margin-right="0"
     fit-margin-bottom="0"
     inkscape:zoom="0.74118967"
     inkscape:cx="225.98804"
     inkscape:cy="258.36841"
     inkscape:window-width="1920"
     inkscape:window-height="1017"
     inkscape:window-x="-8"
     inkscape:window-y="-8"
     inkscape:window-maximized="1"
     inkscape:current-layer="layer1" />
  <defs
     id="defs995" />
  <g
     inkscape:label="Layer 1"
     inkscape:groupmode="layer"
     id="layer1"
     transform="translate(-13.256383,-80.249278)">
    <g
       id="g237119"
       transform="matrix(1.0354455,0,0,1.0181898,-54.520191,58.014091)"
       style="display:inline">
      <path
         style="display:inline;fill:#964b00;fill-opacity:1;stroke:#0e2756;stroke-width:0.288082px;stroke-linecap:butt;stroke-linejoin:miter;stroke-opacity:1"
         d="M 96.379585,23.198858 65.6938,46.627195 96.379585,70.05553 h 7.671445 L 73.365246,46.627195 104.05103,23.198858 Z"
         id="path45" />
      <path
         style="display:inline;fill:#964b00;fill-opacity:1;stroke:#0e2756;stroke-width:0.288536;stroke-linecap:butt;stroke-linejoin:miter;stroke-miterlimit:4;stroke-dasharray:none;stroke-opacity:1"
         d="M 213.71,23.198858 244.39578,46.627195 213.71,70.05553 h -7.67142 L 236.72435,46.627195 206.03858,23.198858 Z"
         id="path45-0" />
      <path
         d="m 134.97109,57.220486 q 0,6.027265 -4.37327,9.498465 -4.37329,3.471201 -12.16913,3.471201 -8.23953,0 -12.73957,-2.17739 v -5.55392 q 2.94721,1.262255 6.43317,1.98805 3.51763,0.725797 6.55991,0.725797 5.19725,0 7.82755,-1.98805 2.6303,-1.988051 2.6303,-5.459251 0,-2.303616 -0.95071,-3.786764 -0.95072,-1.483149 -3.20073,-2.77696 -2.21833,-1.29381 -6.75008,-2.934741 -6.43314,-2.335171 -9.19022,-5.490807 -2.75706,-3.187193 -2.75706,-8.204654 0,-5.396139 4.05637,-8.583332 4.08807,-3.187193 10.74305,-3.187193 6.94023,0 12.77127,2.587623 l -1.80637,4.985906 q -5.95779,-2.461397 -11.09165,-2.461397 -4.11976,0 -6.46485,1.767156 -2.31341,1.767156 -2.31341,4.954349 0,2.272058 0.88734,3.786763 0.91903,1.483148 2.91552,2.713847 2.02818,1.230698 6.33809,2.808516 5.16554,1.893383 7.70078,3.692096 2.53523,1.767155 3.73948,4.102327 1.20422,2.303614 1.20422,5.522363 z"
         id="path17724"
         style="font-size:54.3192px;line-height:1.25;font-family:'Noto Sans';-inkscape-font-specification:'Noto Sans';display:inline;fill:#c3e578;fill-opacity:1;stroke:#0e2756;stroke-width:0.289025;stroke-miterlimit:4;stroke-dasharray:none;stroke-opacity:1" />
      <path
         d="m 158.62219,45.57651 h 15.14073 v 22.627095 q -3.47787,1.167647 -7.07567,1.767249 -3.59781,0.599603 -8.3349,0.599603 -10.01388,0 -15.50053,-6.248485 -5.48665,-6.248488 -5.48665,-17.451582 0,-7.226785 2.72832,-12.623206 2.72835,-5.39642 7.85521,-8.236641 5.15685,-2.871779 12.14256,-2.871779 7.01574,0 13.07203,2.713988 l -2.09871,5.049283 q -5.78647,-2.650873 -11.3031,-2.650873 -7.82521,0 -12.23252,4.986166 -4.40731,4.986166 -4.40731,13.633062 0,9.151823 4.22741,13.917083 4.22741,4.76526 12.29249,4.76526 4.4073,0 8.60474,-1.10453 V 50.752024 h -9.6241 z"
         id="path17726"
         style="font-size:54.3192px;line-height:1.25;font-family:'Noto Sans';-inkscape-font-specification:'Noto Sans';display:inline;fill:#c3e578;fill-opacity:1;stroke:#0e2756;stroke-width:0.286601;stroke-miterlimit:4;stroke-dasharray:none;stroke-opacity:1" />
      <g
         aria-label="/"
         transform="matrix(1.1397754,0,0,1.0401381,-49.377838,-23.657814)"
         id="text31856"
         style="font-size:45.4716px;line-height:1.25;display:inline;opacity:1;fill:#964b00;fill-opacity:1;stroke:#000000;stroke-width:0.265;stroke-miterlimit:4;stroke-dasharray:none;stroke-opacity:1">
        <path
           d="m 221.53918,45.774164 c -5.05037,13.851879 -13.82659,37.264787 -15.23894,40.883834 -1.34691,-3.216489 -4.45151,-1.95005 -4.45151,-1.95005 0,0 9.85675,-26.354177 16.5396,-39.564071 1.20898,-2.389778 3.73494,-0.971719 3.15085,0.630287 z"
           id="path35404"
           sodipodi:nodetypes="sccss"
           style="fill:#964b00;fill-opacity:1;stroke:#000000;stroke-width:0.265;stroke-miterlimit:4;stroke-dasharray:none;stroke-opacity:1" />
      </g>
      <path
         style="display:inline;fill:#c3e578;fill-opacity:1;stroke:#a9da3e;stroke-width:0.288536;stroke-miterlimit:4;stroke-dasharray:none;stroke-opacity:1"
         id="path68913"
         d="m 169.89398,76.282747 c -2.23648,0.760941 -4.63294,0.994222 -7.00859,1.171837 -1.69921,0.0972 -3.40214,0.133826 -5.10453,0.158486 -0.57559,0.0082 -2.30263,0.02376 -1.72698,0.01843 3.30023,-0.03072 3.5848,0.01598 1.0868,-0.108502 -3.67301,-0.214731 -7.31927,-0.671776 -10.96774,-1.083345 -4.24688,-0.516455 -8.4996,-0.997131 -12.75491,-1.45894 -3.5675,-0.437417 -7.15438,-0.719906 -10.75168,-0.883041 -3.92933,-0.125475 -7.87636,-0.220549 -11.79522,0.102044 -1.5912,0.258358 -3.19902,0.473352 -4.72413,0.959902 -0.62644,0.199863 -1.23479,0.43964 -1.85282,0.658081 -1.70077,0.552078 -3.16444,1.482441 -4.485394,2.541442 -1.185152,0.872596 -2.175664,1.90112 -2.863044,3.107923 -0.183298,0.409106 -0.358983,0.819493 -0.518184,1.235962 l 4.615732,0.127235 v 0 c 0.15201,-0.397307 0.31222,-0.791918 0.49534,-1.17955 0.67923,-1.159903 1.66989,-2.121518 2.81264,-2.963362 1.32675,-1.013545 2.78288,-1.876425 4.45772,-2.406942 0.44066,-0.157096 1.38316,-0.499287 1.82036,-0.628666 1.5189,-0.449503 3.1139,-0.664424 4.69464,-0.877397 0.41402,-0.02909 0.82748,-0.06423 1.24201,-0.08676 0.4098,-0.02253 1.64076,-0.03235 1.23057,-0.04768 -1.0925,-0.04055 -2.18692,-0.02007 -3.28037,-0.02867 -0.38967,-0.0029 0.77939,0.0065 1.16903,0.01235 1.21289,0.01719 1.32246,0.02458 2.56495,0.05928 3.62658,0.141282 7.24501,0.39833 10.84028,0.842733 4.25069,0.450274 8.49686,0.934969 12.73622,1.45862 3.63321,0.413652 7.26298,0.879298 10.91889,1.115654 4.84409,0.286459 9.72489,0.198224 14.566,-0.07536 2.24111,-0.582184 3.78126,-0.453182 6.85256,-3.198016 -2.67641,0.914178 -2.94632,0.978058 -4.27015,1.45632 z"
         sodipodi:nodetypes="cccccccccscccccscccscssscccccccc" />
      <path
         style="fill:#ffbf80;fill-opacity:1;stroke:#b35900;stroke-width:0.288536;stroke-linecap:butt;stroke-linejoin:miter;stroke-miterlimit:4;stroke-dasharray:none;stroke-opacity:1"
         d="m 183.33888,65.44773 c -4.10262,-1.189673 -4.79248,1.070995 -6.08749,4.432259 -1.49512,3.880617 -3.3991,4.489273 -3.98763,5.343941 2.76285,-0.02212 5.15764,-1.516237 8.79119,-3.631991 3.19057,-1.99493 3.85575,-4.637414 1.28393,-6.144209 z"
         id="path38560"
         sodipodi:nodetypes="csccc" />
    </g>
  </g>
</svg>
